<svg width="26" height="26" viewBox="0 0 26 26" fill="none" xmlns="http://www.w3.org/2000/svg">
<path d="M2.66272 24.7502L4.36502 23.7288L3.34364 22.7074L2.32227 21.686L1.30089 23.3883L1.42005 24.631L2.66272 24.7502Z" fill="black"/>
<path fill-rule="evenodd" clip-rule="evenodd" d="M19.1127 0.995451C19.805 0.303159 20.9274 0.303157 21.6197 0.995451L25.0553 4.43099C25.7476 5.12328 25.7476 6.24571 25.0553 6.93801L8.72481 23.2685C8.5302 23.4631 8.29297 23.6097 8.03188 23.6967L2.87857 25.4145C1.49273 25.8764 0.174284 24.558 0.63623 23.1721L2.354 18.0188C2.44103 17.7577 2.58765 17.5205 2.78225 17.3259L19.1127 0.995451ZM20.784 1.83112C20.5533 1.60036 20.1791 1.60036 19.9484 1.83112L3.61792 18.1616C3.55306 18.2264 3.50418 18.3055 3.47517 18.3926L1.7574 23.5459C1.60342 24.0078 2.0429 24.4473 2.50485 24.2933L7.65816 22.5755C7.74519 22.5465 7.82427 22.4977 7.88913 22.4328L24.2196 6.10233C24.4504 5.87157 24.4504 5.49743 24.2196 5.26666L20.784 1.83112Z" fill="black"/>
<path fill-rule="evenodd" clip-rule="evenodd" d="M21.3874 9.76995L16.2805 4.66306L17.1162 3.82739L22.2231 8.93427L21.3874 9.76995Z" fill="black"/>
<path fill-rule="evenodd" clip-rule="evenodd" d="M8.11008 23.0478L3.0032 17.9409L3.83887 17.1052L8.94575 22.2121L8.11008 23.0478Z" fill="black"/>
</svg>
